<mxfile host="app.diagrams.net" modified="2024-03-06T00:43:15.230Z" agent="Mozilla/5.0 (X11; Linux x86_64) AppleWebKit/537.36 (KHTML, like Gecko) Chrome/122.0.0.0 Safari/537.36" etag="Lb-j4JCWeeFdJKw891wI" version="24.0.2" type="google">
  <diagram name="Página-1" id="L6ZDzze7Th02usgobAth">
    <mxGraphModel grid="0" page="0" gridSize="10" guides="1" tooltips="1" connect="1" arrows="1" fold="1" pageScale="1" pageWidth="827" pageHeight="1169" math="0" shadow="0">
      <root>
        <mxCell id="0" />
        <mxCell id="1" parent="0" />
        <mxCell id="0lFqm0hWtA_TzQ4Y7hWN-26" style="edgeStyle=none;curved=1;rounded=0;orthogonalLoop=1;jettySize=auto;html=1;exitX=0.5;exitY=0.5;exitDx=0;exitDy=0;exitPerimeter=0;entryX=0;entryY=0.75;entryDx=0;entryDy=0;fontSize=12;startSize=8;endSize=8;" edge="1" parent="1" source="0lFqm0hWtA_TzQ4Y7hWN-1" target="0lFqm0hWtA_TzQ4Y7hWN-8">
          <mxGeometry relative="1" as="geometry" />
        </mxCell>
        <mxCell id="0lFqm0hWtA_TzQ4Y7hWN-27" style="edgeStyle=none;curved=1;rounded=0;orthogonalLoop=1;jettySize=auto;html=1;exitX=0.5;exitY=0.5;exitDx=0;exitDy=0;exitPerimeter=0;entryX=0;entryY=0.75;entryDx=0;entryDy=0;fontSize=12;startSize=8;endSize=8;" edge="1" parent="1" source="0lFqm0hWtA_TzQ4Y7hWN-1" target="0lFqm0hWtA_TzQ4Y7hWN-7">
          <mxGeometry relative="1" as="geometry" />
        </mxCell>
        <mxCell id="0lFqm0hWtA_TzQ4Y7hWN-28" style="edgeStyle=none;curved=1;rounded=0;orthogonalLoop=1;jettySize=auto;html=1;exitX=0.5;exitY=0.5;exitDx=0;exitDy=0;exitPerimeter=0;entryX=0;entryY=0.5;entryDx=0;entryDy=0;fontSize=12;startSize=8;endSize=8;" edge="1" parent="1" source="0lFqm0hWtA_TzQ4Y7hWN-1" target="0lFqm0hWtA_TzQ4Y7hWN-4">
          <mxGeometry relative="1" as="geometry" />
        </mxCell>
        <mxCell id="0lFqm0hWtA_TzQ4Y7hWN-1" value="Usuario" style="shape=umlActor;verticalLabelPosition=bottom;verticalAlign=top;html=1;" vertex="1" parent="1">
          <mxGeometry x="-61" y="460" width="30" height="60" as="geometry" />
        </mxCell>
        <mxCell id="0lFqm0hWtA_TzQ4Y7hWN-2" value="Bibliotecário&amp;nbsp;" style="shape=umlActor;verticalLabelPosition=bottom;verticalAlign=top;html=1;" vertex="1" parent="1">
          <mxGeometry x="905" y="452" width="30" height="60" as="geometry" />
        </mxCell>
        <mxCell id="0lFqm0hWtA_TzQ4Y7hWN-4" value="Cancelar reservas de livros" style="rounded=1;whiteSpace=wrap;html=1;arcSize=45;fontColor=#000000;fillColor=#ffffc0;strokeColor=#ff0000;" vertex="1" parent="1">
          <mxGeometry x="169" y="371" width="120" height="40" as="geometry" />
        </mxCell>
        <mxCell id="0lFqm0hWtA_TzQ4Y7hWN-7" value="Realizar reservas de livros" style="rounded=1;whiteSpace=wrap;html=1;arcSize=45;fontColor=#000000;fillColor=#ffffc0;strokeColor=#ff0000;" vertex="1" parent="1">
          <mxGeometry x="169" y="322" width="120" height="40" as="geometry" />
        </mxCell>
        <mxCell id="0lFqm0hWtA_TzQ4Y7hWN-8" value="Solicitar reservas de livros" style="rounded=1;whiteSpace=wrap;html=1;arcSize=45;fontColor=#000000;fillColor=#ffffc0;strokeColor=#ff0000;" vertex="1" parent="1">
          <mxGeometry x="169" y="273" width="120" height="40" as="geometry" />
        </mxCell>
        <mxCell id="0lFqm0hWtA_TzQ4Y7hWN-9" value="Realizar devolução de livros" style="rounded=1;whiteSpace=wrap;html=1;arcSize=45;fontColor=#000000;fillColor=#ffffc0;strokeColor=#ff0000;" vertex="1" parent="1">
          <mxGeometry x="167" y="420" width="120" height="40" as="geometry" />
        </mxCell>
        <mxCell id="0lFqm0hWtA_TzQ4Y7hWN-19" value="Utilizar cashback adquirido" style="rounded=1;whiteSpace=wrap;html=1;arcSize=45;fontColor=#000000;fillColor=#ffffc0;strokeColor=#ff0000;" vertex="1" parent="1">
          <mxGeometry x="167" y="468" width="120" height="40" as="geometry" />
        </mxCell>
        <mxCell id="0lFqm0hWtA_TzQ4Y7hWN-20" value="Realizar método de pagamento" style="rounded=1;whiteSpace=wrap;html=1;arcSize=45;fontColor=#000000;fillColor=#ffffc0;strokeColor=#ff0000;" vertex="1" parent="1">
          <mxGeometry x="167" y="517" width="120" height="40" as="geometry" />
        </mxCell>
        <mxCell id="0lFqm0hWtA_TzQ4Y7hWN-21" value="Realizar feedback da obra que foi lida" style="rounded=1;whiteSpace=wrap;html=1;arcSize=50;fontColor=#000000;fillColor=#ffffc0;strokeColor=#ff0000;" vertex="1" parent="1">
          <mxGeometry x="169" y="566" width="120" height="40" as="geometry" />
        </mxCell>
        <mxCell id="0lFqm0hWtA_TzQ4Y7hWN-22" value="Consultar estatísticas de leituras pessoais&amp;nbsp;" style="rounded=1;whiteSpace=wrap;html=1;arcSize=50;fontColor=#000000;fillColor=#ffffc0;strokeColor=#ff0000;" vertex="1" parent="1">
          <mxGeometry x="169" y="614" width="120" height="40" as="geometry" />
        </mxCell>
        <mxCell id="0lFqm0hWtA_TzQ4Y7hWN-23" style="edgeStyle=none;curved=1;rounded=0;orthogonalLoop=1;jettySize=auto;html=1;exitX=0.5;exitY=0;exitDx=0;exitDy=0;fontSize=12;startSize=8;endSize=8;" edge="1" parent="1" source="0lFqm0hWtA_TzQ4Y7hWN-22" target="0lFqm0hWtA_TzQ4Y7hWN-22">
          <mxGeometry relative="1" as="geometry" />
        </mxCell>
        <mxCell id="0lFqm0hWtA_TzQ4Y7hWN-29" value="" style="endArrow=classic;html=1;rounded=0;fontSize=12;startSize=8;endSize=8;curved=1;exitX=0.5;exitY=0.5;exitDx=0;exitDy=0;exitPerimeter=0;entryX=0;entryY=0.5;entryDx=0;entryDy=0;" edge="1" parent="1" source="0lFqm0hWtA_TzQ4Y7hWN-1" target="0lFqm0hWtA_TzQ4Y7hWN-9">
          <mxGeometry width="50" height="50" relative="1" as="geometry">
            <mxPoint x="49" y="532" as="sourcePoint" />
            <mxPoint x="99" y="482" as="targetPoint" />
          </mxGeometry>
        </mxCell>
        <mxCell id="0lFqm0hWtA_TzQ4Y7hWN-30" value="" style="endArrow=classic;html=1;rounded=0;fontSize=12;startSize=8;endSize=8;curved=1;exitX=0.5;exitY=0.5;exitDx=0;exitDy=0;exitPerimeter=0;entryX=0;entryY=0.5;entryDx=0;entryDy=0;" edge="1" parent="1" source="0lFqm0hWtA_TzQ4Y7hWN-1" target="0lFqm0hWtA_TzQ4Y7hWN-19">
          <mxGeometry width="50" height="50" relative="1" as="geometry">
            <mxPoint x="452" y="582" as="sourcePoint" />
            <mxPoint x="502" y="532" as="targetPoint" />
          </mxGeometry>
        </mxCell>
        <mxCell id="0lFqm0hWtA_TzQ4Y7hWN-32" value="" style="endArrow=classic;html=1;rounded=0;fontSize=12;startSize=8;endSize=8;curved=1;entryX=0;entryY=0.5;entryDx=0;entryDy=0;exitX=0.5;exitY=0.5;exitDx=0;exitDy=0;exitPerimeter=0;" edge="1" parent="1" target="0lFqm0hWtA_TzQ4Y7hWN-22" source="0lFqm0hWtA_TzQ4Y7hWN-1">
          <mxGeometry width="50" height="50" relative="1" as="geometry">
            <mxPoint x="-27" y="493" as="sourcePoint" />
            <mxPoint x="502" y="532" as="targetPoint" />
          </mxGeometry>
        </mxCell>
        <mxCell id="0lFqm0hWtA_TzQ4Y7hWN-33" value="" style="endArrow=classic;html=1;rounded=0;fontSize=12;startSize=8;endSize=8;curved=1;exitX=0.5;exitY=0.5;exitDx=0;exitDy=0;exitPerimeter=0;entryX=0;entryY=0.5;entryDx=0;entryDy=0;" edge="1" parent="1" source="0lFqm0hWtA_TzQ4Y7hWN-1" target="0lFqm0hWtA_TzQ4Y7hWN-21">
          <mxGeometry width="50" height="50" relative="1" as="geometry">
            <mxPoint x="454" y="577" as="sourcePoint" />
            <mxPoint x="502" y="532" as="targetPoint" />
          </mxGeometry>
        </mxCell>
        <mxCell id="0lFqm0hWtA_TzQ4Y7hWN-34" value="" style="endArrow=classic;html=1;rounded=0;fontSize=12;startSize=8;endSize=8;curved=1;exitX=0.5;exitY=0.5;exitDx=0;exitDy=0;exitPerimeter=0;entryX=0;entryY=0.5;entryDx=0;entryDy=0;" edge="1" parent="1" source="0lFqm0hWtA_TzQ4Y7hWN-1" target="0lFqm0hWtA_TzQ4Y7hWN-20">
          <mxGeometry width="50" height="50" relative="1" as="geometry">
            <mxPoint x="452" y="582" as="sourcePoint" />
            <mxPoint x="502" y="532" as="targetPoint" />
          </mxGeometry>
        </mxCell>
        <mxCell id="0lFqm0hWtA_TzQ4Y7hWN-37" value="Confirmar alteração no sistema" style="rounded=1;whiteSpace=wrap;html=1;arcSize=45;fontColor=#000000;fillColor=#ffffc0;strokeColor=#ff0000;" vertex="1" parent="1">
          <mxGeometry x="555" y="322" width="120" height="40" as="geometry" />
        </mxCell>
        <mxCell id="0lFqm0hWtA_TzQ4Y7hWN-38" value="Protocolar devoluções" style="rounded=1;whiteSpace=wrap;html=1;arcSize=45;fontColor=#000000;fillColor=#ffffc0;strokeColor=#ff0000;" vertex="1" parent="1">
          <mxGeometry x="555" y="371" width="120" height="40" as="geometry" />
        </mxCell>
        <mxCell id="0lFqm0hWtA_TzQ4Y7hWN-40" value="Moderar feedback dos usuários" style="rounded=1;whiteSpace=wrap;html=1;arcSize=45;fontColor=#000000;fillColor=#ffffc0;strokeColor=#ff0000;" vertex="1" parent="1">
          <mxGeometry x="555" y="470" width="120" height="40" as="geometry" />
        </mxCell>
        <mxCell id="0lFqm0hWtA_TzQ4Y7hWN-41" value="Consultar estáticas dos leitores" style="rounded=1;whiteSpace=wrap;html=1;arcSize=45;fontColor=#000000;fillColor=#ffffc0;strokeColor=#ff0000;" vertex="1" parent="1">
          <mxGeometry x="555" y="520" width="120" height="40" as="geometry" />
        </mxCell>
        <mxCell id="0lFqm0hWtA_TzQ4Y7hWN-42" value="Notificar usuários de multas por atraso através de email" style="rounded=1;whiteSpace=wrap;html=1;arcSize=45;fontColor=#000000;fillColor=#ffffc0;strokeColor=#ff0000;" vertex="1" parent="1">
          <mxGeometry x="553" y="570" width="120" height="44" as="geometry" />
        </mxCell>
        <mxCell id="0lFqm0hWtA_TzQ4Y7hWN-43" value="Fornecer cashback para usuário" style="rounded=1;whiteSpace=wrap;html=1;arcSize=45;fontColor=#000000;fillColor=#ffffc0;strokeColor=#ff0000;" vertex="1" parent="1">
          <mxGeometry x="555" y="422" width="120" height="40" as="geometry" />
        </mxCell>
        <mxCell id="0lFqm0hWtA_TzQ4Y7hWN-44" value="Realizar cadastros de livros" style="rounded=1;whiteSpace=wrap;html=1;arcSize=45;fontColor=#000000;fillColor=#ffffc0;strokeColor=#ff0000;" vertex="1" parent="1">
          <mxGeometry x="553" y="273" width="120" height="40" as="geometry" />
        </mxCell>
        <mxCell id="zyAokzTxBoJfxL7XH0fA-12" value="Include" style="endArrow=open;endSize=12;dashed=1;html=1;rounded=0;entryX=0;entryY=0.5;entryDx=0;entryDy=0;" edge="1" parent="1" target="0lFqm0hWtA_TzQ4Y7hWN-37">
          <mxGeometry width="160" relative="1" as="geometry">
            <mxPoint x="289" y="292.5" as="sourcePoint" />
            <mxPoint x="449" y="292.5" as="targetPoint" />
          </mxGeometry>
        </mxCell>
        <mxCell id="zyAokzTxBoJfxL7XH0fA-13" value="Include" style="endArrow=open;endSize=12;dashed=1;html=1;rounded=0;entryX=0;entryY=0.5;entryDx=0;entryDy=0;exitX=1;exitY=0.5;exitDx=0;exitDy=0;" edge="1" parent="1" source="0lFqm0hWtA_TzQ4Y7hWN-7" target="0lFqm0hWtA_TzQ4Y7hWN-37">
          <mxGeometry width="160" relative="1" as="geometry">
            <mxPoint x="299" y="302.5" as="sourcePoint" />
            <mxPoint x="561" y="301" as="targetPoint" />
          </mxGeometry>
        </mxCell>
        <mxCell id="zyAokzTxBoJfxL7XH0fA-14" value="Include" style="endArrow=open;endSize=12;dashed=1;html=1;rounded=0;exitX=1;exitY=0.5;exitDx=0;exitDy=0;entryX=0;entryY=0.5;entryDx=0;entryDy=0;" edge="1" parent="1" source="0lFqm0hWtA_TzQ4Y7hWN-4" target="0lFqm0hWtA_TzQ4Y7hWN-37">
          <mxGeometry width="160" relative="1" as="geometry">
            <mxPoint x="309" y="312.5" as="sourcePoint" />
            <mxPoint x="548" y="291" as="targetPoint" />
          </mxGeometry>
        </mxCell>
        <mxCell id="zyAokzTxBoJfxL7XH0fA-15" value="Include" style="endArrow=open;endSize=12;dashed=1;html=1;rounded=0;entryX=0;entryY=0.5;entryDx=0;entryDy=0;exitX=1;exitY=0.5;exitDx=0;exitDy=0;" edge="1" parent="1" source="0lFqm0hWtA_TzQ4Y7hWN-9" target="0lFqm0hWtA_TzQ4Y7hWN-38">
          <mxGeometry width="160" relative="1" as="geometry">
            <mxPoint x="319" y="322.5" as="sourcePoint" />
            <mxPoint x="581" y="321" as="targetPoint" />
          </mxGeometry>
        </mxCell>
        <mxCell id="zyAokzTxBoJfxL7XH0fA-17" value="Extend" style="endArrow=open;endSize=12;dashed=1;html=1;rounded=0;entryX=0;entryY=0.5;entryDx=0;entryDy=0;" edge="1" parent="1" target="0lFqm0hWtA_TzQ4Y7hWN-40">
          <mxGeometry width="160" relative="1" as="geometry">
            <mxPoint x="291" y="587" as="sourcePoint" />
            <mxPoint x="544" y="585.25" as="targetPoint" />
          </mxGeometry>
        </mxCell>
        <mxCell id="zyAokzTxBoJfxL7XH0fA-18" value="Realizar login no sistema" style="rounded=1;whiteSpace=wrap;html=1;arcSize=50;fontColor=#000000;fillColor=#ffffc0;strokeColor=#ff0000;" vertex="1" parent="1">
          <mxGeometry x="169" y="662" width="120" height="40" as="geometry" />
        </mxCell>
        <mxCell id="zyAokzTxBoJfxL7XH0fA-19" value="" style="endArrow=classic;html=1;rounded=0;fontSize=12;startSize=8;endSize=8;curved=1;entryX=0;entryY=0.5;entryDx=0;entryDy=0;exitX=0.5;exitY=0.5;exitDx=0;exitDy=0;exitPerimeter=0;" edge="1" parent="1" source="0lFqm0hWtA_TzQ4Y7hWN-1" target="zyAokzTxBoJfxL7XH0fA-18">
          <mxGeometry width="50" height="50" relative="1" as="geometry">
            <mxPoint x="-17" y="503" as="sourcePoint" />
            <mxPoint x="179" y="644" as="targetPoint" />
          </mxGeometry>
        </mxCell>
        <mxCell id="zyAokzTxBoJfxL7XH0fA-20" value="Extend" style="endArrow=open;endSize=12;dashed=1;html=1;rounded=0;entryX=1;entryY=0.5;entryDx=0;entryDy=0;exitX=0;exitY=0.5;exitDx=0;exitDy=0;" edge="1" parent="1" source="0lFqm0hWtA_TzQ4Y7hWN-43" target="0lFqm0hWtA_TzQ4Y7hWN-19">
          <mxGeometry width="160" relative="1" as="geometry">
            <mxPoint x="292" y="596.75" as="sourcePoint" />
            <mxPoint x="565" y="550" as="targetPoint" />
          </mxGeometry>
        </mxCell>
        <mxCell id="zyAokzTxBoJfxL7XH0fA-21" style="edgeStyle=none;curved=1;rounded=0;orthogonalLoop=1;jettySize=auto;html=1;exitX=0.5;exitY=0.5;exitDx=0;exitDy=0;exitPerimeter=0;entryX=1;entryY=0.5;entryDx=0;entryDy=0;fontSize=12;startSize=8;endSize=8;" edge="1" parent="1" source="0lFqm0hWtA_TzQ4Y7hWN-2" target="0lFqm0hWtA_TzQ4Y7hWN-44">
          <mxGeometry relative="1" as="geometry">
            <mxPoint x="666" y="468" as="sourcePoint" />
            <mxPoint x="881" y="281" as="targetPoint" />
          </mxGeometry>
        </mxCell>
        <mxCell id="zyAokzTxBoJfxL7XH0fA-22" style="edgeStyle=none;curved=1;rounded=0;orthogonalLoop=1;jettySize=auto;html=1;exitX=0.5;exitY=0.5;exitDx=0;exitDy=0;exitPerimeter=0;entryX=1;entryY=0.5;entryDx=0;entryDy=0;fontSize=12;startSize=8;endSize=8;" edge="1" parent="1" source="0lFqm0hWtA_TzQ4Y7hWN-2">
          <mxGeometry relative="1" as="geometry">
            <mxPoint x="909" y="540.5" as="sourcePoint" />
            <mxPoint x="673" y="343.5" as="targetPoint" />
          </mxGeometry>
        </mxCell>
        <mxCell id="zyAokzTxBoJfxL7XH0fA-23" style="edgeStyle=none;curved=1;rounded=0;orthogonalLoop=1;jettySize=auto;html=1;exitX=0.5;exitY=0.5;exitDx=0;exitDy=0;exitPerimeter=0;entryX=1;entryY=0.5;entryDx=0;entryDy=0;fontSize=12;startSize=8;endSize=8;" edge="1" parent="1" source="0lFqm0hWtA_TzQ4Y7hWN-2" target="0lFqm0hWtA_TzQ4Y7hWN-38">
          <mxGeometry relative="1" as="geometry">
            <mxPoint x="929" y="510" as="sourcePoint" />
            <mxPoint x="693" y="313" as="targetPoint" />
          </mxGeometry>
        </mxCell>
        <mxCell id="zyAokzTxBoJfxL7XH0fA-24" style="edgeStyle=none;curved=1;rounded=0;orthogonalLoop=1;jettySize=auto;html=1;exitX=0.5;exitY=0.5;exitDx=0;exitDy=0;exitPerimeter=0;entryX=1;entryY=0.5;entryDx=0;entryDy=0;fontSize=12;startSize=8;endSize=8;" edge="1" parent="1" source="0lFqm0hWtA_TzQ4Y7hWN-2" target="0lFqm0hWtA_TzQ4Y7hWN-43">
          <mxGeometry relative="1" as="geometry">
            <mxPoint x="939" y="520" as="sourcePoint" />
            <mxPoint x="703" y="323" as="targetPoint" />
          </mxGeometry>
        </mxCell>
        <mxCell id="zyAokzTxBoJfxL7XH0fA-26" style="edgeStyle=none;curved=1;rounded=0;orthogonalLoop=1;jettySize=auto;html=1;exitX=0.5;exitY=0.5;exitDx=0;exitDy=0;exitPerimeter=0;entryX=1;entryY=0.5;entryDx=0;entryDy=0;fontSize=12;startSize=8;endSize=8;" edge="1" parent="1" source="0lFqm0hWtA_TzQ4Y7hWN-2" target="0lFqm0hWtA_TzQ4Y7hWN-40">
          <mxGeometry relative="1" as="geometry">
            <mxPoint x="930" y="492" as="sourcePoint" />
            <mxPoint x="685" y="502" as="targetPoint" />
          </mxGeometry>
        </mxCell>
        <mxCell id="zyAokzTxBoJfxL7XH0fA-27" style="edgeStyle=none;curved=1;rounded=0;orthogonalLoop=1;jettySize=auto;html=1;exitX=0.5;exitY=0.5;exitDx=0;exitDy=0;exitPerimeter=0;entryX=1;entryY=0.5;entryDx=0;entryDy=0;fontSize=12;startSize=8;endSize=8;" edge="1" parent="1" source="0lFqm0hWtA_TzQ4Y7hWN-2" target="0lFqm0hWtA_TzQ4Y7hWN-41">
          <mxGeometry relative="1" as="geometry">
            <mxPoint x="930" y="492" as="sourcePoint" />
            <mxPoint x="685" y="550" as="targetPoint" />
          </mxGeometry>
        </mxCell>
        <mxCell id="zyAokzTxBoJfxL7XH0fA-28" style="edgeStyle=none;curved=1;rounded=0;orthogonalLoop=1;jettySize=auto;html=1;exitX=0.5;exitY=0.5;exitDx=0;exitDy=0;exitPerimeter=0;entryX=1;entryY=0.5;entryDx=0;entryDy=0;fontSize=12;startSize=8;endSize=8;" edge="1" parent="1" source="0lFqm0hWtA_TzQ4Y7hWN-2" target="0lFqm0hWtA_TzQ4Y7hWN-42">
          <mxGeometry relative="1" as="geometry">
            <mxPoint x="930" y="492" as="sourcePoint" />
            <mxPoint x="687" y="600" as="targetPoint" />
          </mxGeometry>
        </mxCell>
        <mxCell id="zyAokzTxBoJfxL7XH0fA-29" value="T.I" style="shape=umlActor;verticalLabelPosition=bottom;verticalAlign=top;html=1;" vertex="1" parent="1">
          <mxGeometry x="407" y="706" width="30" height="60" as="geometry" />
        </mxCell>
        <mxCell id="zyAokzTxBoJfxL7XH0fA-30" style="edgeStyle=none;curved=1;rounded=0;orthogonalLoop=1;jettySize=auto;html=1;exitX=0.5;exitY=0.5;exitDx=0;exitDy=0;exitPerimeter=0;fontSize=12;startSize=8;endSize=8;entryX=0.5;entryY=1;entryDx=0;entryDy=0;" edge="1" parent="1" source="zyAokzTxBoJfxL7XH0fA-29" target="zyAokzTxBoJfxL7XH0fA-31">
          <mxGeometry relative="1" as="geometry">
            <mxPoint x="428" y="710" as="sourcePoint" />
            <mxPoint x="422" y="660" as="targetPoint" />
          </mxGeometry>
        </mxCell>
        <mxCell id="zyAokzTxBoJfxL7XH0fA-31" value="Gerenciar armazenamento dos dados" style="rounded=1;whiteSpace=wrap;html=1;arcSize=50;fontColor=#000000;fillColor=#ffffc0;strokeColor=#ff0000;" vertex="1" parent="1">
          <mxGeometry x="362" y="624" width="120" height="40" as="geometry" />
        </mxCell>
      </root>
    </mxGraphModel>
  </diagram>
</mxfile>
